# xmcd
# Copyright (C) 1995-1998 Ti Kan
#
# Track frame offsets:
#       150
#       16499
#       31548
#       46443
#       63743
#       76094
#       91537
#       109549
#       127848
#       143019
#       159196
#       179162
#
# Disc length: 2464 seconds
#
# Revision: 2
# Processed by: cddbd v1.4PL0 Copyright (c) Steve Scherf et al.
# Submitted via: CD-Transfer v1.0
#
DISCID=87099e0c
DTITLE=Core22 - Nuance
DYEAR=2003
DGENRE=
TTITLE0=First Time
TTITLE1=Satellite
TTITLE2=Cozineed You
TTITLE3=Fly
TTITLE4=Keep It In Mind
TTITLE5=So Cool
TTITLE6=Blind
TTITLE7=All Night Long
TTITLE8=Falling
TTITLE9=Peopler Special
TTITLE10=Heaven Knows
TTITLE11=Nuance
EXTD=
EXTT0=
EXTT1=
EXTT2=
EXTT3=
EXTT4=
EXTT5=
EXTT6=
EXTT7=
EXTT8=
EXTT9=
EXTT10=
EXTT11=
PLAYORDER=
